<?xml version="1.0" encoding="UTF-8"?>
<svg width="52px" height="52px" viewBox="0 0 52 52" version="1.1" xmlns="http://www.w3.org/2000/svg" xmlns:xlink="http://www.w3.org/1999/xlink">
    <!-- Generator: Sketch 64 (93537) - https://sketch.com -->
    <title>男孩2</title>
    <desc>Created with Sketch.</desc>
    <defs>
        <circle id="path-1" cx="25" cy="25" r="25"></circle>
    </defs>
    <g id="页面-1" stroke="none" stroke-width="1" fill="none" fill-rule="evenodd">
        <g id="11小学生学习力" transform="translate(-419.000000, -2067.000000)">
            <g id="男孩2" transform="translate(420.000000, 2068.000000)">
                <mask id="mask-2" fill="white">
                    <use xlink:href="#path-1"></use>
                </mask>
                <circle stroke="#44B979" cx="25" cy="25" r="25.5"></circle>
                <g id="编组" mask="url(#mask-2)">
                    <g transform="translate(10.750000, 7.500000)">
                        <path d="M28.4253268,18.0257723 C28.4253268,19.7225573 27.0496844,21.0980405 25.3528994,21.0980405 C23.6561145,21.0980405 22.2804721,19.7225573 22.2804721,18.0257723 C22.2804721,16.3289874 23.6561145,14.953345 25.3528994,14.953345 C27.0496844,14.953345 28.4253268,16.3289874 28.4253268,18.0257723" id="Fill-1" stroke="#333333" stroke-width="0.5" fill="#F7DDC6" fill-rule="evenodd"></path>
                        <path d="M6.22438408,18.0257723 C6.22438408,19.7225573 4.84874162,21.0980405 3.1519567,21.0980405 C1.45517179,21.0980405 0.0795293296,19.7225573 0.0795293296,18.0257723 C0.0795293296,16.3289874 1.45517179,14.953345 3.1519567,14.953345 C4.84874162,14.953345 6.22438408,16.3289874 6.22438408,18.0257723" id="Fill-5" stroke="#333333" stroke-width="0.5" fill="#F7DDC6" fill-rule="evenodd"></path>
                        <path d="M14.2390777,43.4603506 C18.1118933,43.4603506 21.5226587,42.7277891 23.5224352,41.6161299 L23.5224352,35.542764 C23.5224352,33.5652779 22.5731782,31.6912835 20.9408765,30.575007 C19.2503011,29.4190852 17.1927285,28.7404986 14.972276,28.7404986 L13.771614,28.7404986 C11.3220469,28.7404986 9.07054693,29.5665209 7.29144637,30.9485321 C5.8248905,32.0875768 4.98485698,33.8550545 4.98485698,35.7120126 L4.98485698,41.6328478 C6.98861397,42.7352723 10.3855274,43.4603506 14.2390777,43.4603506" id="Fill-9" stroke="#333333" stroke-width="0.5" fill="#44B979" fill-rule="evenodd"></path>
                        <path d="M14.5214346,31.198552 L14.5214346,31.198552 C12.9131749,31.198552 11.6094989,29.894876 11.6094989,28.286457 L11.6094989,25.8333872 L17.4335296,25.8333872 L17.4335296,28.286457 C17.4335296,29.894876 16.1298536,31.198552 14.5214346,31.198552" id="Fill-13" stroke="#333333" stroke-width="0.5" fill="#FCEBD7" fill-rule="evenodd"></path>
                        <path d="M25.8486084,15.653824 C25.8486084,22.5105419 20.6568318,28.0689972 14.252452,28.0689972 C7.84791285,28.0689972 2.65629553,22.5105419 2.65629553,15.653824 C2.65629553,8.79726536 7.84791285,3.23881006 14.252452,3.23881006 C20.6568318,3.23881006 25.8486084,8.79726536 25.8486084,15.653824" id="Fill-17" stroke="#333333" stroke-width="0.5" fill="#FCEBD7" fill-rule="evenodd"></path>
                        <path d="M20.5258433,18.1109698 C20.5258433,18.7265061 20.0268545,19.225495 19.4113182,19.225495 C18.7957818,19.225495 18.296793,18.7265061 18.296793,18.1109698 C18.296793,17.4954335 18.7957818,16.9964447 19.4113182,16.9964447 C20.0268545,16.9964447 20.5258433,17.4954335 20.5258433,18.1109698" id="Fill-21" stroke="none" fill="#333333" fill-rule="evenodd"></path>
                        <path d="M10.208095,18.1109698 C10.208095,18.7265061 9.70894693,19.225495 9.09356983,19.225495 C8.47803352,19.225495 7.97904469,18.7265061 7.97904469,18.1109698 C7.97904469,17.4954335 8.47803352,16.9964447 9.09356983,16.9964447 C9.70894693,16.9964447 10.208095,17.4954335 10.208095,18.1109698" id="Fill-23" stroke="none" fill="#333333" fill-rule="evenodd"></path>
                        <path d="M11.222488,9.90067709 C11.222488,9.90067709 11.031745,11.7273838 8.90825615,13.5795654 C8.90825615,13.5795654 14.5069936,14.1395346 17.5160522,9.69401229 C17.5160522,9.69401229 20.8960885,16.0350235 27.1012869,15.3747469 C27.1070187,15.2066128 27.4241807,14.9569592 27.4241807,13.4744816 C27.4241807,4.89725531 21.4716612,0.0796407821 14.2524042,0.0796407821 C7.03314721,0.0796407821 1.18093492,5.14420223 1.18093492,14.0742553 C1.18093492,14.3522497 1.30162207,15.1048726 1.37438464,15.3452916 C3.13342374,15.4013363 7.46335391,13.6069508 11.222488,9.90067709" id="Fill-25" stroke="#333333" stroke-width="0.5" fill="#46423F" fill-rule="evenodd"></path>
                        <path d="M16.1007008,23.3591732 C15.6727232,23.9124553 15.0025751,24.2687849 14.2488377,24.2687849 C13.4954187,24.2687849 12.8249522,23.9124553 12.3969746,23.3591732" id="Stroke-29" stroke="#333333" stroke-width="0.636871508" fill="none" stroke-linecap="round"></path>
                        <path d="M7.61193603,37.7044173 L7.61193603,37.7044173 C7.47994441,37.7044173 7.37310922,37.8114117 7.37310922,37.9432441 L7.37310922,42.4809536 L7.85076285,42.4809536 L7.85076285,37.9432441 C7.85076285,37.8114117 7.74376844,37.7044173 7.61193603,37.7044173" id="Fill-31" stroke="none" fill="#333333" fill-rule="evenodd"></path>
                        <path d="M20.8952765,37.7044173 L20.8952765,37.7044173 C20.7634441,37.7044173 20.6564497,37.8114117 20.6564497,37.9432441 L20.6564497,42.4809536 L21.1341034,42.4809536 L21.1341034,37.9432441 C21.1341034,37.8114117 21.0271089,37.7044173 20.8952765,37.7044173" id="Fill-33" stroke="none" fill="#333333" fill-rule="evenodd"></path>
                        <path d="M17.8584821,15.7416804 C18.2173592,15.3544626 18.7793983,15.1051274 19.4113341,15.1051274 C20.0434291,15.1051274 20.6054682,15.3544626 20.9643453,15.7416804" id="Stroke-35" stroke="#333333" stroke-width="0.636871508" fill="none" stroke-linecap="round"></path>
                        <path d="M7.54057458,15.7416804 C7.89945168,15.3544626 8.46149078,15.1051274 9.09358575,15.1051274 C9.72552151,15.1051274 10.2875606,15.3544626 10.6464377,15.7416804" id="Stroke-37" stroke="#333333" stroke-width="0.636871508" fill="none" stroke-linecap="round"></path>
                    </g>
                </g>
            </g>
        </g>
    </g>
</svg>